<svg xmlns="http://www.w3.org/2000/svg" width="16" height="16" fill="currentColor" viewBox="0 0 16 16">
  <path d="M13.417 9.89c-.037.135-.14.26-.308.373l-.01.007-.002.002-.002.002c-.174.119-.365.21-.566.272a1.95 1.95 0 0 1-.61.099c-.223 0-.44-.034-.644-.1a1.93 1.93 0 0 1-.582-.272l-.003-.002-.002-.002-.01-.007c-.168-.114-.27-.238-.308-.373a.978.978 0 0 1-.04-.298c0-.22.08-.413.23-.57l.002-.002.002-.002c.15-.157.34-.235.564-.235.223 0 .42.078.582.235l.002.002.002.002c.15.157.23.35.23.57a.97.97 0 0 1-.04.298zM9.928 9.89c-.038.135-.14.26-.308.373l-.01.007-.002.002-.002.002c-.174.119-.365.21-.566.272a1.95 1.95 0 0 1-.61.099c-.223 0-.44-.034-.644-.1a1.93 1.93 0 0 1-.582-.272l-.003-.002-.002-.002-.01-.007c-.168-.114-.27-.238-.308-.373a.978.978 0 0 1-.04-.298c0-.22.08-.413.23-.57l.002-.002.002-.002c.15-.157.34-.235.564-.235.223 0 .42.078.582.235l.002.002.002.002c.15.157.23.35.23.57a.97.97 0 0 1-.04.298zm-6.46-.408c.012.045.03.085.052.12.023.036.052.068.086.095.035.027.075.05.12.068.044.018.092.032.144.04.05.008.103.012.158.012h.01c.055 0 .108-.004.158-.012.052-.008.1-.022.144-.04.045-.018.085-.04.12-.068.034-.027.063-.59.086-1.095l-1.076.002c-.023.153-.034.306-.034.458 0 .15.01.3.03.45zM8.003 0a8 8 0 1 0 0 16 8 8 0 0 0 0-16zM5.25 6.213c0-.11.02-.215.058-.313.038-.098.09-.185.155-.26.065-.075.144-.137.235-.185.09-.048.19-.072.298-.072.11 0 .215.024.313.072.098.048.185.11.26.185.075.075.137.162.185.26.048.098.072.203.072.313 0 .11-.024.215-.072.313a.97.97 0 0 1-.185.26c-.075.075-.162.137-.26.185-.098.048-.203.072-.313.072-.108 0-.208-.024-.298-.072a.97.97 0 0 1-.235-.185c-.065-.075-.117-.162-.155-.26a.97.97 0 0 1-.058-.313z"/>
</svg>
